<svg width="566" height="566" viewBox="0 0 566 566" fill="none" xmlns="http://www.w3.org/2000/svg">
<rect x="282.873" y="0.707107" width="399" height="399" transform="rotate(45.006 282.873 0.707107)" fill="#1E40AF" stroke="white"/>
<rect x="282.87" y="27.8391" width="360.63" height="360.63" transform="rotate(45.006 282.87 27.8391)" fill="#3B82F6" stroke="white"/>
<path d="M229.642 356V210.545H287.028C298.013 210.545 307.388 212.51 315.153 216.44C322.966 220.323 328.908 225.839 332.98 232.989C337.099 240.091 339.159 248.448 339.159 258.06C339.159 267.719 337.076 276.028 332.909 282.989C328.742 289.902 322.705 295.205 314.798 298.898C306.938 302.591 297.421 304.438 286.247 304.438H247.824V279.722H281.276C287.147 279.722 292.024 278.917 295.906 277.307C299.789 275.697 302.677 273.282 304.571 270.062C306.512 266.843 307.483 262.842 307.483 258.06C307.483 253.23 306.512 249.158 304.571 245.844C302.677 242.529 299.765 240.02 295.835 238.315C291.953 236.563 287.052 235.688 281.134 235.688H260.395V356H229.642ZM308.193 289.807L344.344 356H310.395L275.026 289.807H308.193Z" fill="white"/>
</svg>
